HIERARCHY
ROOT hips
{
  OFFSET 0 10.6860622 2.3727825e-15
  CHANNELS 6 Xposition Yposition Zposition Yrotation Xrotation Zrotation
  JOINT leftUpperLeg
  {
    OFFSET 0.6642549969 -0.9402397400000004 0
    CHANNELS 3 Yrotation Xrotation Zrotation
    JOINT leftLowerLeg
    {
      OFFSET 0 -3.997221335632195 0
      CHANNELS 3 Yrotation Xrotation Zrotation
      JOINT leftFoot
      {
        OFFSET -0.13777839790000004 -4.6145792000000005 -0.22186036399999998
        CHANNELS 3 Yrotation Xrotation Zrotation
        JOINT leftToes
        {
          OFFSET -0.03777410834999995 -0.9130806927000008 0.85230013
          CHANNELS 3 Yrotation Xrotation Zrotation
          End Site
          {
            OFFSET -0.03777410834999995 -0.9130806927000008 0.85230013
          }
        }
      }
    }
  }
  JOINT rightUpperLeg
  {
    OFFSET -0.6642778626 -0.9402397400000004 0
    CHANNELS 3 Yrotation Xrotation Zrotation
    JOINT rightLowerLeg
    {
      OFFSET 0 -3.997221452859387 0
      CHANNELS 3 Yrotation Xrotation Zrotation
      JOINT rightFoot
      {
        OFFSET 0.1377926176 -4.6145792000000005 -0.22185782299999995
        CHANNELS 3 Yrotation Xrotation Zrotation
        JOINT rightToes
        {
          OFFSET 0.037780746850000047 -0.9130806927000008 0.85230167
          CHANNELS 3 Yrotation Xrotation Zrotation
          End Site
          {
            OFFSET 0.037780746850000047 -0.9130806927000008 0.85230167
          }
        }
      }
    }
  }
  JOINT spine
  {
    OFFSET 0 0.13988381660000015 0
    CHANNELS 3 Yrotation Xrotation Zrotation
    JOINT chest
    {
      OFFSET 0 0.6191039003973773 0
      CHANNELS 3 Yrotation Xrotation Zrotation
      JOINT upperChest
      {
        OFFSET 0 0.9855186130586943 0
        CHANNELS 3 Yrotation Xrotation Zrotation
        JOINT leftShoulder
        {
          OFFSET 0.1807663869 1.5087829790000005 0
          CHANNELS 3 Yrotation Xrotation Zrotation
          JOINT leftUpperArm
          {
            OFFSET 0.5985063006419806 0 0
            CHANNELS 3 Yrotation Xrotation Zrotation
            JOINT leftLowerArm
            {
              OFFSET 2.2993332369501065 0 0
              CHANNELS 3 Yrotation Xrotation Zrotation
              JOINT leftHand
              {
                OFFSET 2.395047042602395 0 0
                CHANNELS 3 Yrotation Xrotation Zrotation
                JOINT leftIndexProximal
                {
                  OFFSET 0.5766295810000004 0.04556643899499946 0.17265095988184
                  CHANNELS 3 Yrotation Xrotation Zrotation
                  JOINT leftIndexIntermediate
                  {
                    OFFSET 0.2957229000000008 -0.019352197700001517 -0.007932640616999987
                    CHANNELS 3 Yrotation Xrotation Zrotation
                    JOINT leftIndexDistal
                    {
                      OFFSET 0.19008243099999922 -0.012484908149998475 -0.002786250786000012
                      CHANNELS 3 Yrotation Xrotation Zrotation
                      End Site
                      {
                        OFFSET 0.19008243099999922 -0.012484908149998475 -0.002786250786000012
                      }
                    }
                  }
                }
                JOINT leftMiddleProximal
                {
                  OFFSET 0.5834975091000001 0.0524350405149987 0.02204081888183999
                  CHANNELS 3 Yrotation Xrotation Zrotation
                  JOINT leftMiddleIntermediate
                  {
                    OFFSET 0.33880573540000003 -0.019871473270000717 -0.00000971183179999946
                    CHANNELS 3 Yrotation Xrotation Zrotation
                    JOINT leftMiddleDistal
                    {
                      OFFSET 0.20676022730000088 -0.012221336379999448 0.0001471936708000235
                      CHANNELS 3 Yrotation Xrotation Zrotation
                      End Site
                      {
                        OFFSET 0.20676022730000088 -0.012221336379999448 0.0001471936708000235
                      }
                    }
                  }
                }
                JOINT leftLittleProximal
                {
                  OFFSET 0.5344154683999995 -0.012880921405001189 -0.24414037221816004
                  CHANNELS 3 Yrotation Xrotation Zrotation
                  JOINT leftLittleIntermediate
                  {
                    OFFSET 0.21758961730000093 -0.011650919939999227 0.011893592810000034
                    CHANNELS 3 Yrotation Xrotation Zrotation
                    JOINT leftLittleDistal
                    {
                      OFFSET 0.1475273964999999 -0.008152365682999818 0.006001092492999946
                      CHANNELS 3 Yrotation Xrotation Zrotation
                      End Site
                      {
                        OFFSET 0.1475273964999999 -0.008152365682999818 0.006001092492999946
                      }
                    }
                  }
                }
                JOINT leftRingProximal
                {
                  OFFSET 0.5799399463000003 0.026911854694997794 -0.12150566991816003
                  CHANNELS 3 Yrotation Xrotation Zrotation
                  JOINT leftRingIntermediate
                  {
                    OFFSET 0.26167887460000006 -0.013480186499999602 0.010996293000000053
                    CHANNELS 3 Yrotation Xrotation Zrotation
                    JOINT leftRingDistal
                    {
                      OFFSET 0.17667108799999987 -0.008990287899999228 0.0055541023999999065
                      CHANNELS 3 Yrotation Xrotation Zrotation
                      End Site
                      {
                        OFFSET 0.17667108799999987 -0.008990287899999228 0.0055541023999999065
                      }
                    }
                  }
                }
                JOINT leftThumbProximal
                {
                  OFFSET 0.11018806699999972 -0.09448718900500053 0.17047963138184
                  CHANNELS 3 Yrotation Xrotation Zrotation
                  JOINT leftThumbIntermediate
                  {
                    OFFSET 0.31062601459999983 -0.08126270900000132 0.15443142000000007
                    CHANNELS 3 Yrotation Xrotation Zrotation
                    JOINT leftThumbDistal
                    {
                      OFFSET 0.21627175790000086 -0.08833193599999878 0.018771167799999988
                      CHANNELS 3 Yrotation Xrotation Zrotation
                      End Site
                      {
                        OFFSET 0.21627175790000086 -0.08833193599999878 0.018771167799999988
                      }
                    }
                  }
                }
              }
            }
          }
        }
        JOINT neck
        {
          OFFSET 0 1.5463305265074576 0
          CHANNELS 3 Yrotation Xrotation Zrotation
          JOINT head
          {
            OFFSET 0 0.8456443600000344 0
            CHANNELS 3 Yrotation Xrotation Zrotation
            JOINT leftEye
            {
              OFFSET 0.30408573140000006 0.5104519199999995 0.1276382305
              CHANNELS 3 Yrotation Xrotation Zrotation
              End Site
              {
                OFFSET 0.30408573140000006 0.5104519199999995 0.1276382305
              }
            }
            JOINT rightEye
            {
              OFFSET -0.30409491089999996 0.5104519199999995 0.1276379445
              CHANNELS 3 Yrotation Xrotation Zrotation
              End Site
              {
                OFFSET -0.30409491089999996 0.5104519199999995 0.1276379445
              }
            }
            JOINT jaw
            {
              OFFSET -3.155239131000001e-7 -0.11984121820000082 0.60178107
              CHANNELS 3 Yrotation Xrotation Zrotation
              End Site
              {
                OFFSET -3.155239131000001e-7 -0.11984121820000082 0.60178107
              }
            }
          }
        }
        JOINT rightShoulder
        {
          OFFSET -0.1807303465 1.5087829790000005 0
          CHANNELS 3 Yrotation Xrotation Zrotation
          JOINT rightUpperArm
          {
            OFFSET -0.5985063796536958 0 0
            CHANNELS 3 Yrotation Xrotation Zrotation
            JOINT rightLowerArm
            {
              OFFSET -2.2993322059002854 0 0
              CHANNELS 3 Yrotation Xrotation Zrotation
              JOINT rightHand
              {
                OFFSET -2.395045314457259 0 0
                CHANNELS 3 Yrotation Xrotation Zrotation
                JOINT rightIndexProximal
                {
                  OFFSET -0.5764487688300002 0.0441371204405987 0.17361932004999997
                  CHANNELS 3 Yrotation Xrotation Zrotation
                  JOINT rightIndexIntermediate
                  {
                    OFFSET -0.29573011380000047 -0.01934826376999843 -0.007698921482999974
                    CHANNELS 3 Yrotation Xrotation Zrotation
                    JOINT rightIndexDistal
                    {
                      OFFSET -0.19008373999999884 -0.012503266380000655 -0.0026365778999999897
                      CHANNELS 3 Yrotation Xrotation Zrotation
                      End Site
                      {
                        OFFSET -0.19008373999999884 -0.012503266380000655 -0.0026365778999999897
                      }
                    }
                  }
                }
                JOINT rightMiddleProximal
                {
                  OFFSET -0.5834852037300005 0.05211639405060153 0.02307162440000001
                  CHANNELS 3 Yrotation Xrotation Zrotation
                  JOINT rightMiddleIntermediate
                  {
                    OFFSET -0.33880114510000003 -0.019952774050000954 0.0002455003561999819
                    CHANNELS 3 Yrotation Xrotation Zrotation
                    JOINT rightMiddleDistal
                    {
                      OFFSET -0.20675694929999955 -0.012273788999999091 0.00030209124000002766
                      CHANNELS 3 Yrotation Xrotation Zrotation
                      End Site
                      {
                        OFFSET -0.20675694929999955 -0.012273788999999091 0.00030209124000002766
                      }
                    }
                  }
                }
                JOINT rightLittleProximal
                {
                  OFFSET -0.5346811737299992 -0.011214256288399227 -0.24363941305000003
                  CHANNELS 3 Yrotation Xrotation Zrotation
                  JOINT rightLittleIntermediate
                  {
                    OFFSET -0.21757715980000092 -0.011771559690000988 0.01201554387
                    CHANNELS 3 Yrotation Xrotation Zrotation
                    JOINT rightLittleDistal
                    {
                      OFFSET -0.1475201849000004 -0.00822055339600003 0.006082065407000015
                      CHANNELS 3 Yrotation Xrotation Zrotation
                      End Site
                      {
                        OFFSET -0.1475201849000004 -0.00822055339600003 0.006082065407000015
                      }
                    }
                  }
                }
                JOINT rightRingProximal
                {
                  OFFSET -0.5800810755299999 0.027657985680600072 -0.12066365025000003
                  CHANNELS 3 Yrotation Xrotation Zrotation
                  JOINT rightRingIntermediate
                  {
                    OFFSET -0.26166445029999974 -0.013623118409999302 0.011164098990000045
                    CHANNELS 3 Yrotation Xrotation Zrotation
                    JOINT rightRingDistal
                    {
                      OFFSET -0.17666387530000027 -0.009072900100000503 0.005668185599999959
                      CHANNELS 3 Yrotation Xrotation Zrotation
                      End Site
                      {
                        OFFSET -0.17666387530000027 -0.009072900100000503 0.005668185599999959
                      }
                    }
                  }
                }
                JOINT rightThumbProximal
                {
                  OFFSET -0.10997596379000074 -0.09577489355940072 0.16989765924999997
                  CHANNELS 3 Yrotation Xrotation Zrotation
                  JOINT rightThumbIntermediate
                  {
                    OFFSET -0.31036620999999986 -0.08229339117999834 0.15440884469999996
                    CHANNELS 3 Yrotation Xrotation Zrotation
                    JOINT rightThumbDistal
                    {
                      OFFSET -0.21631306399999906 -0.08825326400000111 0.018656797720000014
                      CHANNELS 3 Yrotation Xrotation Zrotation
                      End Site
                      {
                        OFFSET -0.21631306399999906 -0.08825326400000111 0.018656797720000014
                      }
                    }
                  }
                }
              }
            }
          }
        }
      }
    }
  }
}
MOTION
Frames: 7
Frame Time: 0.03333333333333333
0 -8.999394419488503 0 0 -26.001497380190933 0 -180 -69.97599899662875 174.17365699595538 172.42118176865984 52.27152736754298 170.45084076491483 0 0.06818900290257406 0 0 0 0 -11.110891502549348 -77.1209263338141 -1.5933723879397157 -2.6733526669618013 24.564680632807843 -6.4084655666457575 0 32.03500958673231 0 0 0 0 -37.909928271879785 20.849195615590656 -16.284534706220164 0 23.081294275643288 0 0 0 0 0.0717154821756615 1.527522449210673 0.0019117305604028044 -61.7463819476066 36.46012481896971 26.11133962098023 -80.54993414211582 17.951771290742975 -5.079617723163009 -15.574979070620534 -40.940214889990195 8.356118922217785 0 0 0 0 0 0 0 0 0 0 0 0 0 0 0 0 0 0 0 0 0 0 0 0 0 0 0 0 0 0 0 0 0 0 0 0 0 0 0 0 0 0 0 0 0 15.60649143492214 1.4350431100262218 0.1593614295444118 -23.97632317367167 0.3433215131288617 24.106150878793397 0 0 0 0 0 0 0 0 0 0 1.5275236235667615 0 53.61112114131486 -25.052189041840702 -25.78258456439439 0 0 0 0 0 0 0 0 0 0 0 0 0 0 0 0 0 0 0 0 0 0 0 0 0 0 0 0 0 0 0 0 0 0 0 0 0 0 0 0 0 0 0 0 0 0 0 0 0 0 0
0 -8.999394419488503 0 0 -26.001497380190933 0 -180 -69.97599899662875 174.17365699595538 172.42118176865984 52.27152736754298 170.45084076491483 0 0.06818900290257406 0 0 0 0 -10.554574222532324 -76.78863047838406 -2.079414757151977 -2.5544198178636024 23.5942116923306 -6.359939107675383 0 32.34301177682373 0 0 0 0 -37.909928271879785 20.849195615590656 -16.284534706220164 0 23.081294275643288 0 0 0 0 0.0717154821756615 1.527522449210673 0.0019117305604028044 -61.72478152267115 36.18753821846947 26.023171157087464 -80.6040757116706 17.890291212863737 -5.071135138050741 -15.497446614792539 -40.810302037227856 8.297778142104274 0 0 0 0 0 0 0 0 0 0 0 0 0 0 0 0 0 0 0 0 0 0 0 0 0 0 0 0 0 0 0 0 0 0 0 0 0 0 0 0 0 0 0 0 0 15.554447448543657 1.4349516208314932 0.155617928769727 -23.963051762269178 0.37294502278980124 24.172776470686916 0 0 0 0 0 0 0 0 0 0 1.5275236235667615 0 53.61112114131486 -25.052187156969364 -25.78258456439439 0 0 0 0 0 0 0 0 0 0 0 0 0 0 0 0 0 0 0 0 0 0 0 0 0 0 0 0 0 0 0 0 0 0 0 0 0 0 0 0 0 0 0 0 0 0 0 0 0 0 0
0 -8.999394419488503 0 0 -26.001497380190933 0 -180 -69.97599899662875 174.17365699595538 172.42118176865984 52.27152736754298 170.45084076491483 0 0.06818900290257406 0 0 0 0 -10.023733858631498 -76.45530484834264 -2.539931055015587 -2.4372340100458905 22.62365205549639 -6.313944338077521 0 32.65100736634742 0 0 0 0 -37.909928271879785 20.849195615590656 -16.284534706220164 0 23.081294275643288 0 0 0 0 0.0717154821756615 1.527522449210673 0.0019117305604028044 -61.70273490896295 35.91498201278964 25.93518188133227 -80.65820852968827 17.828819867174627 -5.062594008034236 -15.420239137000998 -40.68032781295335 8.239782211597193 0 0 0 0 0 0 0 0 0 0 0 0 0 0 0 0 0 0 0 0 0 0 0 0 0 0 0 0 0 0 0 0 0 0 0 0 0 0 0 0 0 0 0 0 0 15.502403127693826 1.4348568222298472 0.15187453091773445 -23.949747319337337 0.4025530503936724 24.239407873874786 0 0 0 0 0 0 0 0 0 0 1.5275236235667615 0 53.61112114131486 -25.052185272098054 -25.782582924716905 0 0 0 0 0 0 0 0 0 0 0 0 0 0 0 0 0 0 0 0 0 0 0 0 0 0 0 0 0 0 0 0 0 0 0 0 0 0 0 0 0 0 0 0 0 0 0 0 0 0 0
0 -8.999394419488503 0 0 -26.001497380190933 0 -180 -69.97599899662875 174.17365699595538 172.42118176865984 52.27152736754298 170.45084076491483 0 0.06818900290257406 0 0 0 0 -9.517322032223232 -76.12149552462492 -2.9760765301225085 -2.323007173075976 21.66413928060506 -6.270886833303513 0 32.95868369258393 0 0 0 0 -37.909928271879785 20.849195615590656 -16.284534706220164 0 23.081294275643288 0 0 0 0 0.0717154821756615 1.527522449210673 0.0019117305604028044 -61.68020391526757 35.641928666119504 25.847193608695914 -80.71233607458818 17.767333863986227 -5.0539901586060205 -15.34330523684264 -40.550211007771665 8.18209250427412 0 0 0 0 0 0 0 0 0 0 0 0 0 0 0 0 0 0 0 0 0 0 0 0 0 0 0 0 0 0 0 0 0 0 0 0 0 0 0 0 0 0 0 0 0 15.450354219926203 1.4347586074665197 0.1481306572239259 -23.936411393899228 0.4321425086670689 24.306039001346697 0 0 0 0 0 0 0 0 0 0 1.5275236235667615 0 53.61112114131486 -25.052185272098054 -25.782582924716905 0 0 0 0 0 0 0 0 0 0 0 0 0 0 0 0 0 0 0 0 0 0 0 0 0 0 0 0 0 0 0 0 0 0 0 0 0 0 0 0 0 0 0 0 0 0 0 0 0 0 0
0 -8.999394419488503 0 0 -26.001497380190933 0 -180 -69.97599899662875 174.17365699595538 172.42118176865984 52.27152736754298 170.45084076491483 0 0.06818900290257406 0 0 0 0 -9.032943775628626 -75.78682165155038 -3.390137201343803 -2.210290239040902 20.70454964562599 -6.2301527185565435 0 33.26636084066741 0 0 0 0 -37.909928271879785 20.849195615590656 -16.284534706220164 0 23.081294275643288 0 0 0 0 0.0717154821756615 1.527522449210673 0.0019117305604028044 -61.657234808308495 35.368904794405836 25.75937434615963 -80.76645623459697 17.705856449583578 -5.045328405308625 -15.266690787886043 -40.420037013410244 8.124743991845117 0 0 0 0 0 0 0 0 0 0 0 0 0 0 0 0 0 0 0 0 0 0 0 0 0 0 0 0 0 0 0 0 0 0 0 0 0 0 0 0 0 0 0 0 0 15.398305622388088 1.4346568697867803 0.14438686411707383 -23.923042413798765 0.46171639359688 24.3726777778525 0 0 0 0 0 0 0 0 0 0 1.5275236235667615 0 53.61112114131486 -25.052185272098054 -25.782582924716905 0 0 0 0 0 0 0 0 0 0 0 0 0 0 0 0 0 0 0 0 0 0 0 0 0 0 0 0 0 0 0 0 0 0 0 0 0 0 0 0 0 0 0 0 0 0 0 0 0 0 0
0 -8.999394419488503 0 0 -26.001497380190933 0 -180 -69.97599899662875 174.17365699595538 172.42118176865984 52.27152736754298 170.45084076491483 0 0.06818900290257406 0 0 0 0 -8.569814547579591 -75.45183372590193 -3.783001406193762 -2.100315341308618 19.756369056367337 -6.192122452205557 0 33.57370343119931 0 0 0 0 -37.909928271879785 20.849195615590656 -16.284534706220164 0 23.081294275643288 0 0 0 0 0.0717154821756615 1.527522449210673 0.0019117305604028044 -61.633794661199836 35.09541557868021 25.671560853890803 -80.8205839764149 17.6443696259623 -5.036607885372942 -15.190354604263002 -40.289724903031704 8.067701137450541 0 0 0 0 0 0 0 0 0 0 0 0 0 0 0 0 0 0 0 0 0 0 0 0 0 0 0 0 0 0 0 0 0 0 0 0 0 0 0 0 0 0 0 0 0 15.346250706929151 1.434551715946264 0.1406430799486411 -23.909638983067328 0.4912688162832073 24.43931190196303 0 0 0 0 0 0 0 0 0 0 1.5275236235667615 0 53.61112114131486 -25.052185272098054 -25.782582924716905 0 0 0 0 0 0 0 0 0 0 0 0 0 0 0 0 0 0 0 0 0 0 0 0 0 0 0 0 0 0 0 0 0 0 0 0 0 0 0 0 0 0 0 0 0 0 0 0 0 0 0
0 -8.999394419488503 0 0 -26.001497380190933 0 -180 -69.97599899662875 174.17365699595538 172.42118176865984 52.27152736754298 170.45084076491483 0 0.06818900290257406 0 0 0 0 -8.125845790822469 -75.11607610058932 -4.156653585035168 -1.9916401627571023 18.808123779458562 -6.156234410791195 0 33.88104175688384 0 0 0 0 -37.909928271879785 20.849195615590656 -16.284534706220164 0 23.081294275643288 0 0 0 0 0.0717154821756615 1.527522449210673 0.0019117305604028044 -61.60992013138599 34.82195454355416 25.583902502670686 -80.87470335570967 17.58289124431497 -5.027829388989436 -15.114333351119576 -40.15935523652885 8.010995481620405 0 0 0 0 0 0 0 0 0 0 0 0 0 0 0 0 0 0 0 0 0 0 0 0 0 0 0 0 0 0 0 0 0 0 0 0 0 0 0 0 0 0 0 0 0 15.294196019554017 1.434443039190281 0.1368993811666742 -23.896200736454603 0.5208056275667177 24.50595240519211 0 0 0 0 0 0 0 0 0 0 1.5275236235667615 0 53.61112114131486 -25.052185272098054 -25.782582924716905 0 0 0 0 0 0 0 0 0 0 0 0 0 0 0 0 0 0 0 0 0 0 0 0 0 0 0 0 0 0 0 0 0 0 0 0 0 0 0 0 0 0 0 0 0 0 0 0 0 0 0
